<?xml version="1.0" encoding="utf-8"?>
<!-- Generator: Adobe Illustrator 24.2.1, SVG Export Plug-In . SVG Version: 6.00 Build 0)  -->
<svg version="1.1" id="Layer_1" xmlns="http://www.w3.org/2000/svg" xmlns:xlink="http://www.w3.org/1999/xlink" x="0px" y="0px"
	 viewBox="0 0 259.8 100.5" style="enable-background:new 0 0 259.8 100.5;" xml:space="preserve">
<style type="text/css">
	.st0{display:none;}
	.st1{display:inline;fill:none;}
	.st2{display:none;fill:#1E1D1C;}
	.st3{fill:#FFFFFF;}
	.st4{fill:#61bdb1;}
</style>
<g id="bgnd" class="st0">
	<rect y="0" class="st1" width="259.8" height="100.5"/>
</g>
<g id="artwork">
	<rect x="-278.8" y="-246" class="st2" width="838.8" height="592.5"/>
</g>
<g id="white_space_area" class="st0">
</g>
<g>
	<path class="st3" d="M64,23.6h15.8v3.3H68V33h11.2v3.3H68v10h-4V23.6z"/>
	<path class="st3" d="M86.4,23.6v3.8h-3.7v-3.8H86.4z M86.4,29.4v16.8h-3.7V29.4H86.4z"/>
	<path class="st3" d="M98.8,33.2c-0.6-0.1-1.2-0.1-1.8-0.1c-2.3,0-3.7,0.9-3.7,4.3v8.8h-3.7V29.4h3.7v3c0.9-1.9,2.5-3,4.6-3
		c0.3,0,0.7,0,1,0.1V33.2z"/>
	<path class="st3" d="M110.8,34c-0.4-1.5-1.8-2.1-3.7-2.1c-1.6,0-3.1,0.7-3.1,1.8c0,1.1,0.8,1.7,2.3,2l2.4,0.5c3.4,0.7,6,1.7,6,5
		c0,3.5-3.3,5.4-7.1,5.4c-4.1,0-6.9-2.3-7.3-5.5h3.6c0.3,1.7,1.6,2.7,3.8,2.7c1.9,0,3.4-0.8,3.4-2.2c0-1.4-1.3-2-2.9-2.3l-2.5-0.5
		c-2.8-0.6-5.1-1.8-5.1-4.9c0-3,3.2-4.9,6.9-4.9c3.3,0,6.3,1.6,7,5H110.8z"/>
	<path class="st3" d="M118.5,25h3.7v4.4h3.4v2.7h-3.4v9.2c0,1.7,0.4,2.1,2,2.1h1.3v2.8h-2.8c-3.6,0-4.3-1-4.3-4.4v-9.7H116v-2.7h2.5
		V25z"/>
	<path class="st3" d="M141.9,36c-3.6-0.7-6.5-2.6-6.5-6.4c0-4.3,4.4-6.4,8.6-6.4c4.5,0,8,2,8.9,6.8H149c-0.7-2.7-3-3.5-5.3-3.5
		c-1.8,0-4.3,0.8-4.3,3c0,1.8,1.4,2.6,3.4,3l2.8,0.5c4,0.8,7.8,2.2,7.8,6.8s-4.5,6.9-9,6.9c-5.4,0-9.1-2.9-9.5-7.9h3.9
		c0.7,3.1,2.7,4.7,5.8,4.7c2.7,0,4.9-1.2,4.9-3.4c0-2.3-2.5-3.1-4.7-3.5L141.9,36z"/>
	<path class="st3" d="M159.1,38.9c0.3,3.1,2.4,4.7,4.6,4.7c1.9,0,3.5-0.8,4.1-2.3h3.7c-0.8,2.7-3.3,5.4-7.6,5.4
		c-5.4,0-8.5-4.1-8.5-8.9c0-5.1,3.5-8.7,8.3-8.7c5.2,0,8.4,4.2,8.1,9.9H159.1z M159.1,36.2h8.8c-0.1-2.6-2.1-4.2-4.3-4.2
		C161.8,32,159.4,33,159.1,36.2z"/>
	<path class="st3" d="M177.5,31.8c1-1.8,2.8-2.7,5.1-2.7c4.1,0,5.7,2.6,5.7,6.6v10.6h-3.7v-9.7c0-2.3-0.3-4.5-3.2-4.5
		c-2.8,0-3.9,2.2-3.9,5.2v8.9h-3.7V29.4h3.7V31.8z"/>
	<path class="st3" d="M192.4,25h3.7v4.4h3.4v2.7h-3.4v9.2c0,1.7,0.4,2.1,2,2.1h1.3v2.8h-2.8c-3.6,0-4.3-1-4.3-4.4v-9.7h-2.5v-2.7
		h2.5V25z"/>
	<path class="st3" d="M205.9,23.6v3.8h-3.7v-3.8H205.9z M205.9,29.4v16.8h-3.7V29.4H205.9z"/>
	<path class="st3" d="M212,38.9c0.3,3.1,2.4,4.7,4.6,4.7c1.9,0,3.5-0.8,4.1-2.3h3.7c-0.8,2.7-3.3,5.4-7.6,5.4
		c-5.4,0-8.5-4.1-8.5-8.9c0-5.1,3.5-8.7,8.3-8.7c5.2,0,8.4,4.2,8.1,9.9H212z M212,36.2h8.8c-0.1-2.6-2.1-4.2-4.3-4.2
		C214.7,32,212.3,33,212,36.2z"/>
	<path class="st3" d="M236.2,33.2c-0.6-0.1-1.2-0.1-1.8-0.1c-2.3,0-3.7,0.9-3.7,4.3v8.8H227V29.4h3.7v3c0.9-1.9,2.5-3,4.6-3
		c0.3,0,0.7,0,1,0.1V33.2z"/>
	<path class="st3" d="M66.1,76.9H64V54.2h2.1V76.9z"/>
	<path class="st3" d="M71.6,62.9c0.8-1.6,2.5-3.1,5.6-3.1c4,0,5.7,2.4,5.7,6.5v10.6h-1.9V66.8c0-3.2-0.8-5.3-4.2-5.3
		c-2.9,0-5.1,2.4-5.1,6v9.4h-1.9V60.1h1.9V62.9z"/>
	<path class="st3" d="M91.7,74.2l5.1-14.1h2.1l-6.3,16.8h-1.9l-6.4-16.8h2.2L91.7,74.2z"/>
	<path class="st3" d="M99.4,68.6c0-5.4,3.4-8.8,7.9-8.8c4.8,0,7.8,4,7.5,9.3h-13.4c0.1,4.1,2.6,6.5,6.1,6.5c2.6,0,4.5-1.3,5.1-3.7h2
		c-0.8,3.5-3.6,5.4-7.3,5.4C102.4,77.3,99.4,73.8,99.4,68.6z M101.5,67.3h11.2c0-2.8-2-5.7-5.4-5.7
		C104.1,61.5,101.9,63.6,101.5,67.3z"/>
	<path class="st3" d="M128,64.7c-0.4-2-2.3-3.2-4.6-3.2c-1.8,0-4.3,0.7-4.3,2.8c0,1.7,1.3,2.5,3.2,2.9l2.4,0.4
		c2.8,0.5,5.8,1.4,5.8,4.6c0,3.3-3,5.1-6.7,5.1c-3.5,0-6.5-1.7-7-5.6h2c0.4,2.7,2.5,3.8,5.1,3.8c2,0,4.6-0.8,4.6-3.1
		c0-2-1.9-2.7-4.2-3.1l-2.6-0.5c-2.4-0.5-4.6-1.9-4.6-4.5c0-2.7,2.7-4.6,6.4-4.6c3.6,0,6.1,2.2,6.5,4.9H128z"/>
	<path class="st3" d="M134.7,56.3h2v3.8h3.3v1.7h-3.3v10.8c0,2.2,0.1,2.6,2.3,2.6h1v1.8h-1.6c-3,0-3.7-0.7-3.7-4V61.8h-2.8v-1.7h2.8
		V56.3z"/>
	<path class="st3" d="M148.9,59.8c4,0,7.6,2.6,7.6,8.8c0,6.1-3.6,8.8-7.6,8.8c-4,0-7.6-2.6-7.6-8.8
		C141.2,62.4,144.8,59.8,148.9,59.8z M148.9,75.5c3.2,0,5.6-2.2,5.6-7s-2.3-7-5.6-7c-3.2,0-5.5,2.2-5.5,7S145.6,75.5,148.9,75.5z"/>
	<path class="st3" d="M166.8,62.1c-0.3,0-0.6,0-0.9,0c-3.5,0-4.6,2.5-4.6,6.1v8.8h-1.9V60.1h1.8v3.1c0.8-2,2.9-3.2,5-3.2
		c0.2,0,0.4,0,0.6,0V62.1z"/>
	<path class="st3" d="M179.1,64.7c-0.4-2-2.3-3.2-4.6-3.2c-1.8,0-4.3,0.7-4.3,2.8c0,1.7,1.3,2.5,3.2,2.9l2.4,0.4
		c2.8,0.5,5.8,1.4,5.8,4.6c0,3.3-3,5.1-6.7,5.1c-3.5,0-6.5-1.7-7-5.6h2c0.4,2.7,2.5,3.8,5.1,3.8c2,0,4.6-0.8,4.6-3.1
		c0-2-1.9-2.7-4.2-3.1l-2.6-0.5c-2.4-0.5-4.6-1.9-4.6-4.5c0-2.7,2.7-4.6,6.4-4.6c3.6,0,6.1,2.2,6.5,4.9H179.1z"/>
</g>
<path class="st4" d="M31.4,73.2l0-0.4c0-3-3.3-4.9-5.9-3.4h0c-1.2,0.7-1.9,2-1.9,3.4v0.4c0,3,3.3,4.9,5.9,3.4l0,0
	C30.7,75.9,31.4,74.6,31.4,73.2z"/>
<polygon class="st4" points="47.2,33.1 47.2,23.6 23.6,37.5 23.6,47.1 "/>
<polygon class="st4" points="23.6,54.1 23.6,63.6 47.2,49.6 47.2,40.2 "/>
</svg>
