<?xml version="1.0" encoding="UTF-8"?>
<svg id="Layer_1" data-name="Layer 1" xmlns="http://www.w3.org/2000/svg" viewBox="0 0 110.86 39.12">
  <defs>
    <style>
      .cls-1 {
        fill: #fff;
      }
    </style>
  </defs>
  <path class="cls-1" d="M0,9.19h3.69V.43H0v8.75ZM5.6,17.19h3.69V.43h-3.69v16.76ZM11.19,5.12h3.69V.43h-3.69v4.68ZM16.79,13.01h3.69V.43h-3.69v12.58Z"/>
  <path class="cls-1" d="M109.94,32.34h.76c-.15-1.01-1.08-1.84-2.42-1.84-1.42,0-2.41.74-2.41,1.73s.8,1.51,1.71,1.68l.98.19c.85.17,1.56.42,1.56,1.16,0,.84-.95,1.16-1.71,1.16-.97,0-1.77-.45-1.91-1.44h-.76c.19,1.44,1.31,2.08,2.61,2.08,1.37,0,2.5-.67,2.5-1.92s-1.15-1.54-2.18-1.73l-.89-.16c-.69-.13-1.18-.46-1.18-1.08,0-.76.91-1.03,1.6-1.03.89,0,1.58.44,1.73,1.19M105.29,31.36v-.77c-.07-.01-.15-.01-.21-.01-.76,0-1.58.46-1.86,1.19v-1.15h-.69v6.3h.71v-3.3c0-1.33.42-2.27,1.72-2.27.11,0,.21,0,.33.01M96.28,33.32c.15-1.39.99-2.14,2.17-2.14,1.26,0,2.02,1.08,2.02,2.14h-4.19ZM95.5,33.8c0,1.95,1.12,3.28,2.97,3.28,1.38,0,2.42-.74,2.73-2.04h-.76c-.25.87-.94,1.37-1.92,1.37-1.29,0-2.25-.9-2.27-2.42h5.01c.09-1.97-1.03-3.46-2.81-3.46-1.68,0-2.95,1.24-2.95,3.28M91.53,31.17c.96,0,2.04.76,2.04,2.49s-1.08,2.5-2.04,2.5c-1.17,0-1.99-.95-1.99-2.5s.82-2.49,1.99-2.49M93.5,35.63v1.15c0,1.17-.72,1.71-1.91,1.71-1.06,0-1.61-.55-1.7-1.22h-.76c.12,1.13,1.14,1.85,2.43,1.85,1.5,0,2.67-.74,2.67-2.42v-6.07h-.74v1.09c-.43-.76-1.19-1.19-2.13-1.19-1.44,0-2.62,1.19-2.62,3.15s1.18,3.15,2.62,3.15c.94,0,1.7-.42,2.13-1.18M84.86,36.43c-.83,0-1.44-.42-1.44-1.09,0-.98,1.1-1.32,3.66-1.6v.3c0,1.79-1.05,2.39-2.22,2.39M87.06,35.96l.04.96h.74c-.04-.68-.07-1.3-.07-2.01,0-.5.01-1.08.01-1.94,0-1.87-.97-2.48-2.43-2.48s-2.41.82-2.57,2.06h.76c.06-.82.7-1.42,1.77-1.42.91,0,1.75.32,1.75,1.74v.22c-3.03.31-4.43.83-4.43,2.26,0,1.04.91,1.72,2.08,1.72s1.95-.44,2.36-1.11M77.32,31.69v-1.07h-.72v6.3h.72v-3.5c0-1.33.82-2.25,1.91-2.25,1.27,0,1.58.8,1.58,1.98v3.77h.73v-3.97c0-1.55-.63-2.43-2.12-2.43-1.17,0-1.79.57-2.1,1.17M72.16,36.43c-.83,0-1.44-.42-1.44-1.09,0-.98,1.1-1.32,3.66-1.6v.3c0,1.79-1.05,2.39-2.22,2.39M74.36,35.96l.04.96h.74c-.03-.68-.07-1.3-.07-2.01,0-.5.01-1.08.01-1.94,0-1.87-.97-2.48-2.43-2.48s-2.41.82-2.57,2.06h.76c.06-.82.7-1.42,1.77-1.42.91,0,1.75.32,1.75,1.74v.22c-3.03.31-4.43.83-4.43,2.26,0,1.04.91,1.72,2.08,1.72s1.96-.44,2.36-1.11M64.07,36.92h.8l2.88-7.73v7.73h.79v-8.48h-1.25l-2.8,7.59-2.81-7.59h-1.26v8.48h.78v-7.73l2.88,7.73ZM54.28,29.21v1.42h-1.04v.63h1.04v4.17c0,1.24.26,1.5,1.38,1.5h.6v-.66h-.37c-.84,0-.87-.16-.87-.98v-4.02h1.24v-.63h-1.24v-1.42h-.74ZM48.2,31.69v-1.07h-.72v6.3h.72v-3.5c0-1.33.82-2.25,1.91-2.25,1.27,0,1.58.8,1.58,1.98v3.77h.73v-3.97c0-1.55-.63-2.43-2.12-2.43-1.17,0-1.79.57-2.09,1.17M41.23,33.32c.15-1.39.99-2.14,2.16-2.14,1.26,0,2.02,1.08,2.02,2.14h-4.19ZM40.46,33.8c0,1.95,1.12,3.28,2.97,3.28,1.38,0,2.42-.74,2.73-2.04h-.76c-.25.87-.94,1.37-1.92,1.37-1.29,0-2.25-.9-2.27-2.42h5.01c.09-1.97-1.03-3.46-2.81-3.46-1.68,0-2.95,1.24-2.95,3.28M31.43,36.92v-3.5c0-1.33.76-2.25,1.79-2.25,1.22,0,1.46.8,1.46,1.98v3.77h.73v-3.5c0-1.33.76-2.25,1.79-2.25,1.22,0,1.46.8,1.46,1.98v3.77h.73v-3.97c0-1.55-.57-2.43-2-2.43-1.02,0-1.65.46-2.13,1.25-.26-.81-.84-1.25-1.85-1.25-1.11,0-1.67.57-1.98,1.17v-1.07h-.73v6.3h.73ZM27.53,29.21v1.42h-1.04v.63h1.04v4.17c0,1.24.26,1.5,1.38,1.5h.6v-.66h-.38c-.84,0-.86-.16-.86-.98v-4.02h1.24v-.63h-1.24v-1.42h-.74ZM24.91,32.34h.76c-.15-1.01-1.08-1.84-2.42-1.84-1.42,0-2.41.74-2.41,1.73s.8,1.51,1.71,1.68l.98.19c.85.17,1.56.42,1.56,1.16,0,.84-.95,1.16-1.71,1.16-.97,0-1.77-.45-1.91-1.44h-.76c.19,1.44,1.31,2.08,2.61,2.08,1.37,0,2.5-.67,2.5-1.92s-1.15-1.54-2.17-1.73l-.89-.16c-.69-.13-1.18-.46-1.18-1.08,0-.76.91-1.03,1.6-1.03.89,0,1.58.44,1.73,1.19M14.87,33.32c.15-1.39.99-2.14,2.16-2.14,1.26,0,2.02,1.08,2.02,2.14h-4.19ZM14.1,33.8c0,1.95,1.12,3.28,2.97,3.28,1.38,0,2.42-.74,2.73-2.04h-.76c-.24.87-.93,1.37-1.92,1.37-1.29,0-2.25-.9-2.27-2.42h5.01c.09-1.97-1.03-3.46-2.81-3.46-1.69,0-2.95,1.24-2.95,3.28M11.03,35.91l-1.95-5.29h-.82l2.41,6.3h.7l2.34-6.3h-.78l-1.9,5.29ZM3.39,31.69v-1.07h-.73v6.3h.73v-3.5c0-1.33.82-2.25,1.91-2.25,1.27,0,1.58.8,1.58,1.98v3.77h.73v-3.97c0-1.55-.63-2.43-2.12-2.43-1.17,0-1.79.57-2.1,1.17M.78,28.44h-.78v8.48h.78v-8.48ZM5.6,24.58h3.69v-5.3h-3.69v5.3ZM16.79,24.58h3.69v-9.48h-3.69v9.48ZM0,24.58h3.69v-13.31H0v13.31ZM11.19,24.58h3.69V7.21h-3.69v17.38ZM27.74.43h16.86v3.53h-12.63v6.46h11.89v3.5h-11.89v10.66h-4.23V.43ZM95.76,15.69l3.63-10.36,3.66,10.36h-7.29ZM97.33.43l-8.99,24.15h4.33l1.87-5.36h9.79l1.9,5.36h4.63L101.79.43h-4.46ZM75.24,13.62l2.93.57c2.3.43,4.96,1.27,4.96,3.73,0,2.33-2.3,3.63-5.16,3.63-3.33,0-5.46-1.67-6.2-4.96h-4.16c.5,5.3,4.43,8.43,10.16,8.43,4.76,0,9.59-2.5,9.59-7.36s-4.03-6.4-8.26-7.23l-2.96-.57c-2.07-.4-3.6-1.33-3.6-3.2,0-2.37,2.76-3.2,4.63-3.2,2.37,0,4.9.83,5.6,3.73h4.1C85.9,2.17,82.17,0,77.41,0,72.98,0,68.28,2.27,68.28,6.8c0,4.1,3.17,6.06,6.96,6.83M53.13,13.62l2.93.57c2.3.43,4.96,1.27,4.96,3.73,0,2.33-2.3,3.63-5.16,3.63-3.33,0-5.46-1.67-6.2-4.96h-4.16c.5,5.3,4.43,8.43,10.16,8.43,4.76,0,9.59-2.5,9.59-7.36s-4.03-6.4-8.26-7.23l-2.97-.57c-2.06-.4-3.6-1.33-3.6-3.2,0-2.37,2.76-3.2,4.63-3.2,2.36,0,4.9.83,5.6,3.73h4.1C63.79,2.17,60.06,0,55.29,0,50.86,0,46.16,2.27,46.16,6.8c0,4.1,3.16,6.06,6.96,6.83"/>
</svg>