<?xml version="1.0" encoding="UTF-8" standalone="no"?>
<!-- Generator: Adobe Illustrator 26.1.0, SVG Export Plug-In . SVG Version: 6.00 Build 0)  -->

<svg
   version="1.1"
   id="Layer_1"
   x="0px"
   y="0px"
   viewBox="0 0 246 50.299996"
   xml:space="preserve"
   sodipodi:docname="6232e3ac09760f7f134d3931_Footer Logo2.svg"
   width="246"
   height="50.299999"
   inkscape:version="1.1.2 (b8e25be833, 2022-02-05)"
   xmlns:inkscape="http://www.inkscape.org/namespaces/inkscape"
   xmlns:sodipodi="http://sodipodi.sourceforge.net/DTD/sodipodi-0.dtd"
   xmlns:xlink="http://www.w3.org/1999/xlink"
   xmlns="http://www.w3.org/2000/svg"
   xmlns:svg="http://www.w3.org/2000/svg"><defs
   id="defs72" /><sodipodi:namedview
   id="namedview70"
   pagecolor="#00ffff"
   bordercolor="#666666"
   borderopacity="1.0"
   inkscape:pageshadow="2"
   inkscape:pageopacity="0.3254902"
   inkscape:pagecheckerboard="0"
   showgrid="false"
   inkscape:zoom="4.300813"
   inkscape:cx="122.88374"
   inkscape:cy="61.732514"
   inkscape:window-width="1928"
   inkscape:window-height="986"
   inkscape:window-x="-8"
   inkscape:window-y="-8"
   inkscape:window-maximized="1"
   inkscape:current-layer="Layer_1" />
<style
   type="text/css"
   id="style41">
	.st0{fill:#FF5424;}
	.st1{fill:#FFFFFF;}
	.st2{clip-path:url(#SVGID_00000160177950196752620470000012368429184541994420_);}
</style>
<g
   id="g67">
	<g
   id="g65">
		<path
   class="st0"
   d="M 5.8,8.7 C 8.2,8.7 10.1,6.8 10.1,4.4 10.2,1.9 8.2,0 5.8,0 3.4,0 1.5,1.9 1.5,4.3 c 0,2.4 1.9,4.4 4.3,4.4 z"
   id="path43" />
		<path
   class="st1"
   d="M 9.4,11.6 0,14.8 c 1.4,1 2.2,2.7 2.2,4.7 v 13.8 c 0,2 -0.7,4.3 -1.7,5.7 H 11.1 C 10,37.6 9.4,35.3 9.4,33.3 Z m 57.4,8.9 c 0,-4.9 -2.5,-8.8 -8.5,-8.8 -3.7,0 -8,2 -9,5.9 -0.9,-3.4 -3.4,-5.9 -8.1,-5.9 -3.2,0 -5.6,1.3 -7.1,3.3 -2.1,-2.1 -5.3,-3.4 -8.9,-3.4 -6.3,0 -11.4,4.1 -11.4,9.1 0,2.5 1.3,4.8 3.4,6.5 -1.4,0.9 -3.6,2.9 -3.6,5.9 0,1.9 0.7,3.3 2,4.3 -1.2,1 -3,2.9 -3,5.8 0,4.5 4.7,7 10.7,7 6,0 15.1,-2.7 15.1,-10.4 0,-1.9 -0.9,-3.6 -2.5,-4.7 -2.7,-1.9 -6.3,-2.1 -9.5,-2.2 -2.8,-0.1 -9.3,0.4 -9.3,-3 0,-1 0.6,-1.7 1.1,-2 1.9,1.2 4.3,1.9 7,1.9 6.3,0 11.4,-4.1 11.4,-9.1 0,-1.9 -0.7,-3.6 -2,-5.1 1.1,-1 2.7,-1.4 4.3,-0.9 3.5,1.2 3.6,5.5 3.6,8.6 v 10 c 0,2 -0.7,4.3 -1.7,5.6 H 51.4 C 50.3,37.5 49.7,35.2 49.7,33.2 V 20.9 c 0,-2.8 2,-5.1 5.2,-5.1 3,0 4.7,2.2 4.7,4.8 v 12.7 c 0,2 -0.7,4.3 -1.7,5.6 h 10.6 c -1.1,-1.4 -1.7,-3.7 -1.7,-5.7 z m -43.4,19 c 5.9,0.1 11.9,0.1 11.8,3.6 -0.1,6.1 -13.2,6 -17.8,1.3 -1.7,-1.7 -2.2,-4.5 -1,-6.5 1.8,1 4.2,1.5 7,1.6 z m 1.7,-10.9 c -2.5,0 -4.5,-2.9 -4.5,-7.9 0,-4.9 2,-7.9 4.5,-7.9 2.5,0 4.5,2.9 4.5,7.9 0.1,4.9 -2,7.9 -4.5,7.9 z m 61.3,5.8 C 79.8,34.4 76.2,28.8 76,21.7 H 94.5 C 94,15.4 89.3,11.6 83.2,11.6 c -7.2,0 -13,6.3 -13,14 0,7.7 4.3,14 12.4,14 5.7,0 10.6,-3.3 12.2,-9.5 l -0.4,-0.3 c -1.8,3.1 -4.7,4.6 -8,4.6 z M 81.6,13.1 c 3,0 5.5,2.7 5.7,7.5 H 76 c 0.1,-4.7 2.6,-7.5 5.6,-7.5 z m 29.5,-1.5 c -7.5,0 -13.7,6.3 -13.7,14 0,7.7 6.1,14 13.7,14 7.5,0 13.7,-6.3 13.7,-14 -0.1,-7.7 -6.2,-14 -13.7,-14 z m 0,27 c -3.5,0 -6.3,-5.8 -6.3,-13 0,-7.2 2.8,-13 6.3,-13 3.5,0 6.3,5.8 6.3,13 0,7.2 -2.8,13 -6.3,13 z"
   id="path45" />
		<path
   class="st1"
   d="m 142.1,26.6 h -4.5 v 12.3 h 1.3 v -4.7 h 3.2 c 2.4,0 4,-1.5 4,-3.8 0,-2.3 -1.6,-3.8 -4,-3.8 z m -0.2,6.5 h -3 v -5.5 h 3 c 1.7,0 2.9,1.1 2.9,2.7 0,1.6 -1.1,2.8 -2.9,2.8 z m 9.1,-3.2 c -1.4,0 -2.4,0.4 -3.2,1.2 l 0.5,0.7 c 0.6,-0.6 1.4,-1 2.4,-1 1.6,0 2.6,1 2.6,2.6 V 34 c -0.8,-0.2 -1.7,-0.3 -2.6,-0.3 -2.2,0 -3.6,1.1 -3.6,2.7 0,1.5 1.2,2.6 2.9,2.6 1.4,0 2.6,-0.7 3.3,-2 v 1.8 h 1.2 v -5.5 c 0,-2 -1.4,-3.4 -3.5,-3.4 z m -0.6,8.3 c -1.2,0 -2,-0.7 -2,-1.7 0,-1.1 1,-1.8 2.5,-1.8 0.8,0 1.6,0.1 2.4,0.3 0,2 -1.5,3.2 -2.9,3.2 z m 8.1,-6.6 v -1.5 h -1.2 v 8.8 h 1.2 v -5.1 c 0,-1.7 1.2,-2.8 3.4,-2.8 l 0.1,-1.1 c -1.7,0 -2.9,0.6 -3.5,1.7 z m 6.7,4.8 v -5.3 h 3.2 v -1 h -3.2 V 27.5 H 164 v 2.6 h -1.5 v 1 h 1.5 v 5.5 c 0,1.4 1,2.4 2.4,2.4 0.8,0 1.5,-0.1 2.1,-0.4 v -1 c -0.6,0.2 -1.1,0.3 -1.8,0.3 -0.8,0.1 -1.5,-0.5 -1.5,-1.5 z m 9.4,-6.5 c -1.5,0 -2.6,0.6 -3.2,1.6 V 30 h -1.2 v 8.8 h 1.2 v -5.3 c 0,-1.6 1.1,-2.6 2.8,-2.6 1.7,0 2.8,1 2.8,2.6 v 5.3 h 1.2 v -5.5 c 0,-2 -1.4,-3.4 -3.6,-3.4 z m 10,0 c -2.5,0 -4.2,1.8 -4.2,4.6 0,2.7 1.7,4.6 4.2,4.6 1.6,0 2.9,-0.7 3.8,-1.9 l -0.9,-0.5 c -0.7,0.9 -1.7,1.5 -2.8,1.5 -1.7,0 -2.8,-1.2 -2.9,-3.2 h 7 c 0,-0.1 0,-0.4 0,-0.5 -0.1,-2.8 -1.7,-4.6 -4.2,-4.6 z m -2.9,4.2 c 0.1,-2 1.2,-3.2 2.9,-3.2 1.7,0 2.8,1.2 2.9,3.2 z m 10.5,-2.5 V 30.1 H 191 v 8.8 h 1.2 v -5.1 c 0,-1.7 1.2,-2.8 3.4,-2.8 l 0.1,-1.1 c -1.7,0 -2.9,0.6 -3.5,1.7 z m 8.3,2.5 -0.9,-0.3 c -0.9,-0.3 -1.6,-0.6 -1.6,-1.4 0,-0.9 0.8,-1.4 1.9,-1.4 0.8,0 1.6,0.2 2.4,0.6 l 0.5,-0.8 C 202,30.3 201,30 199.8,30 c -1.9,0 -3.1,1 -3.1,2.6 0,1.3 0.9,1.9 2.3,2.2 l 0.9,0.3 c 1.1,0.3 1.8,0.8 1.8,1.6 0,0.9 -0.8,1.5 -2.1,1.5 -0.9,0 -1.8,-0.2 -2.5,-0.7 l -0.5,0.7 c 0.7,0.6 1.8,0.9 3,0.9 2,0 3.3,-1 3.3,-2.5 0.1,-1.5 -1.1,-2.2 -2.4,-2.5 z"
   id="path47" />
		<path
   class="st1"
   d="m 137.6,23.6 h 1.3 V 11.3 h -1.3 z m 8.9,-9 c -1.5,0 -2.6,0.6 -3.2,1.6 v -1.5 h -1.2 v 8.8 h 1.2 v -5.3 c 0,-1.6 1.1,-2.6 2.8,-2.6 1.7,0 2.8,1 2.8,2.6 v 5.3 h 1.2 V 18 c 0,-2 -1.5,-3.4 -3.6,-3.4 z m 6.7,-1.7 v 1.9 h -1.5 v 1 h 1.5 v 7.8 h 1.2 v -7.8 h 3 v -1 h -3 v -1.7 c 0,-1 0.7,-1.6 1.7,-1.6 0.5,0 1,0.1 1.4,0.3 l 0.1,-0.9 c -0.5,-0.2 -1.1,-0.3 -1.8,-0.3 -1.5,-0.1 -2.6,0.8 -2.6,2.3 z m 7.1,3.4 v -1.5 h -1.2 v 8.8 h 1.2 v -5.1 c 0,-1.7 1.2,-2.8 3.4,-2.8 l 0.1,-1.1 c -1.7,0 -2.9,0.6 -3.5,1.7 z m 8,-1.7 c -1.4,0 -2.4,0.4 -3.2,1.2 l 0.5,0.7 c 0.6,-0.6 1.4,-1 2.4,-1 1.6,0 2.6,1 2.6,2.6 v 0.6 c -0.8,-0.2 -1.7,-0.3 -2.6,-0.3 -2.2,0 -3.6,1.1 -3.6,2.7 0,1.5 1.2,2.6 2.9,2.6 1.4,0 2.6,-0.7 3.3,-2 v 1.8 h 1.2 V 18 c 0,-2 -1.4,-3.4 -3.5,-3.4 z m -0.6,8.3 c -1.2,0 -2,-0.7 -2,-1.7 0,-1.1 1,-1.8 2.5,-1.8 0.8,0 1.6,0.1 2.4,0.3 0,2 -1.5,3.2 -2.9,3.2 z m 10.2,-4.2 -0.9,-0.3 c -0.9,-0.3 -1.6,-0.6 -1.6,-1.4 0,-0.9 0.8,-1.4 1.9,-1.4 0.8,0 1.6,0.2 2.4,0.6 l 0.5,-0.8 c -0.8,-0.5 -1.8,-0.8 -3,-0.8 -1.9,0 -3.1,1 -3.1,2.6 0,1.3 0.9,1.9 2.3,2.2 l 0.9,0.3 c 1.1,0.3 1.8,0.8 1.8,1.6 0,0.9 -0.8,1.5 -2.1,1.5 -0.9,0 -1.8,-0.2 -2.5,-0.7 l -0.5,0.7 c 0.7,0.6 1.8,0.9 3,0.9 2,0 3.3,-1 3.3,-2.5 0.1,-1.4 -1.1,-2.1 -2.4,-2.5 z m 6.4,2.4 v -5.3 h 3.2 v -1 h -3.2 v -2.6 h -1.2 v 2.6 h -1.5 v 1 h 1.5 v 5.5 c 0,1.4 1,2.4 2.4,2.4 0.8,0 1.5,-0.1 2.1,-0.4 v -1 c -0.6,0.2 -1.1,0.3 -1.8,0.3 -0.9,0.1 -1.5,-0.5 -1.5,-1.5 z m 6.2,-4.8 v -1.5 h -1.2 v 8.8 h 1.2 v -5.1 c 0,-1.7 1.2,-2.8 3.4,-2.8 l 0.1,-1.1 c -1.7,0 -2.8,0.6 -3.5,1.7 z m 11.6,3.8 c 0,1.6 -1.1,2.6 -2.7,2.6 -1.6,0 -2.7,-1 -2.7,-2.6 v -5.3 h -1.2 v 5.6 c 0,2 1.4,3.4 3.5,3.4 1.5,0 2.5,-0.6 3.1,-1.6 v 1.5 h 1.1 V 14.9 H 202 v 5.2 z m 8,2.6 c -2,0 -3.3,-1.4 -3.3,-3.5 0,-2.1 1.3,-3.5 3.3,-3.5 0.8,0 1.5,0.2 2.2,0.7 l 0.7,-0.8 c -0.8,-0.6 -1.7,-1 -2.8,-1 -2.7,0 -4.5,1.8 -4.5,4.6 0,2.7 1.8,4.6 4.5,4.6 1.3,0 2.4,-0.4 3.2,-1.2 l -0.7,-0.8 c -0.8,0.6 -1.7,0.9 -2.6,0.9 z m 6.8,-1.6 v -5.3 h 3.2 v -1 h -3.2 v -2.6 h -1.2 v 2.6 h -1.5 v 1 h 1.5 v 5.5 c 0,1.4 1,2.4 2.4,2.4 0.8,0 1.5,-0.1 2.1,-0.4 v -1 c -0.6,0.2 -1.1,0.3 -1.8,0.3 -0.9,0.1 -1.5,-0.5 -1.5,-1.5 z m 11.5,-1 c 0,1.6 -1.1,2.6 -2.7,2.6 -1.6,0 -2.7,-1 -2.7,-2.6 v -5.3 h -1.2 v 5.6 c 0,2 1.4,3.4 3.5,3.4 1.5,0 2.5,-0.6 3.1,-1.6 v 1.5 h 1.1 v -8.8 h -1.2 v 5.2 z m 5.2,-3.8 v -1.5 h -1.2 v 8.8 h 1.2 v -5.1 c 0,-1.7 1.2,-2.8 3.4,-2.8 l 0.1,-1.1 c -1.7,0 -2.8,0.6 -3.5,1.7 z m 12.3,2.8 c 0,-2.7 -1.7,-4.5 -4.1,-4.5 -2.5,0 -4.2,1.8 -4.2,4.6 0,2.7 1.7,4.6 4.2,4.6 1.6,0 2.9,-0.7 3.8,-1.9 l -0.9,-0.5 c -0.7,0.9 -1.7,1.5 -2.8,1.5 -1.7,0 -2.8,-1.2 -2.9,-3.2 h 7 c -0.1,-0.2 -0.1,-0.5 -0.1,-0.6 z m -7,-0.3 c 0.1,-2 1.2,-3.2 2.9,-3.2 1.7,0 2.8,1.2 2.9,3.2 z"
   id="path49" />
		<g
   id="g63">
			<defs
   id="defs52">
				<rect
   id="SVGID_1_"
   x="0.1"
   y="100.1"
   width="245.89999"
   height="23.200001" />
			</defs>
			<clipPath
   id="SVGID_00000023251297316448561490000004910263131820203434_">
				<use
   xlink:href="#SVGID_1_"
   style="overflow:visible"
   id="use54"
   x="0"
   y="0"
   width="100%"
   height="100%" />
			</clipPath>
			<g
   clip-path="url(#SVGID_00000023251297316448561490000004910263131820203434_)"
   id="g61">
				<path
   class="st1"
   d="m 242.5,119.8 c -1.5,0 -2.5,-1.1 -2.5,-2.8 0,-1.7 1,-2.8 2.5,-2.8 1.5,0 2.5,1.1 2.5,2.8 0,1.6 -1,2.8 -2.5,2.8 z m 0.2,-6.4 c -1.4,0 -2.3,0.6 -2.8,1.6 v -1.5 H 239 v 9.8 h 0.9 v -4.4 c 0.5,1 1.4,1.6 2.8,1.6 1.9,0 3.3,-1.4 3.3,-3.6 0,-2.1 -1.4,-3.5 -3.3,-3.5 z m -6.8,0.1 v 4.2 c 0,1.2 -0.8,2.1 -2.1,2.1 -1.3,0 -2.1,-0.8 -2.1,-2.1 v -4.2 h -0.9 v 4.4 c 0,1.6 1.1,2.7 2.7,2.7 1.2,0 2,-0.5 2.4,-1.3 v 1.1 h 0.9 v -6.9 z m -10.2,6.3 c -1.5,0 -2.5,-1.1 -2.5,-2.8 0,-1.7 1,-2.8 2.5,-2.8 1.5,0 2.5,1.1 2.5,2.8 0,1.6 -1,2.8 -2.5,2.8 z m 0,0.8 c 2.1,0 3.5,-1.4 3.5,-3.6 0,-2.2 -1.4,-3.6 -3.5,-3.6 -2.1,0 -3.5,1.4 -3.5,3.6 0,2.1 1.4,3.6 3.5,3.6 z m -6.5,-5.9 v -1.2 h -0.9 v 6.9 h 0.9 v -4 c 0,-1.3 1,-2.2 2.6,-2.2 l 0.1,-0.9 c -1.3,0.1 -2.2,0.5 -2.7,1.4 z m -2.5,0.6 h -4.1 v 0.8 h 3.1 c -0.1,2.2 -1.4,3.6 -3.5,3.6 -2.2,0 -3.7,-1.7 -3.7,-4.1 0,-2.5 1.5,-4.1 3.7,-4.1 1,0 1.9,0.2 2.6,0.8 l 0.7,-0.6 c -0.9,-0.7 -1.9,-1 -3.2,-1 -2.9,0 -4.7,2 -4.7,5 0,3 1.9,5 4.7,5 2.8,0 4.6,-1.9 4.6,-5 -0.2,-0.2 -0.2,-0.3 -0.2,-0.4 z m -16.6,5.3 c 1.6,0 2.6,-0.8 2.6,-2 0,-1.1 -0.9,-1.7 -2,-1.9 l -0.7,-0.2 c -0.7,-0.2 -1.3,-0.5 -1.3,-1.1 0,-0.7 0.6,-1.1 1.5,-1.1 0.7,0 1.3,0.1 1.9,0.5 l 0.4,-0.6 c -0.7,-0.4 -1.4,-0.6 -2.3,-0.6 -1.5,0 -2.4,0.8 -2.4,2 0,1 0.7,1.5 1.8,1.8 l 0.7,0.2 c 0.8,0.2 1.4,0.6 1.4,1.3 0,0.7 -0.7,1.2 -1.6,1.2 -0.7,0 -1.4,-0.1 -2,-0.6 l -0.4,0.6 c 0.6,0.2 1.4,0.5 2.4,0.5 z m -5.8,-5.9 v -1.2 h -0.9 v 6.9 h 0.9 v -4 c 0,-1.3 1,-2.2 2.6,-2.2 l 0.1,-0.9 c -1.3,0.1 -2.2,0.5 -2.7,1.4 z m -6.1,5.1 c -1.5,0 -2.5,-1.1 -2.5,-2.8 0,-1.7 1,-2.8 2.5,-2.8 1.5,0 2.5,1.1 2.5,2.8 0,1.6 -1,2.8 -2.5,2.8 z m 0,0.8 c 2.1,0 3.5,-1.4 3.5,-3.6 0,-2.2 -1.4,-3.6 -3.5,-3.6 -2.1,0 -3.5,1.4 -3.5,3.6 -0.1,2.1 1.4,3.6 3.5,3.6 z m -5.7,-0.8 c -0.7,0 -1.2,-0.5 -1.2,-1.3 v -4.2 h 2.5 v -0.8 h -2.5 v -2 h -0.9 v 2 h -1.2 v 0.8 h 1.2 v 4.4 c 0,1.1 0.8,1.9 1.9,1.9 0.7,0 1.2,-0.1 1.7,-0.3 v -0.8 c -0.5,0.2 -1,0.3 -1.5,0.3 z m -6.7,0.8 c 1.6,0 2.6,-0.8 2.6,-2 0,-1.1 -1,-1.7 -2,-1.9 l -0.7,-0.2 c -0.7,-0.2 -1.3,-0.5 -1.3,-1.1 0,-0.7 0.6,-1.1 1.5,-1.1 0.7,0 1.3,0.1 1.9,0.5 l 0.4,-0.6 c -0.7,-0.4 -1.4,-0.6 -2.4,-0.6 -1.5,0 -2.4,0.8 -2.4,2 0,1 0.7,1.5 1.8,1.8 l 0.7,0.2 c 0.8,0.2 1.4,0.6 1.4,1.3 0,0.7 -0.7,1.2 -1.6,1.2 -0.7,0 -1.4,-0.1 -2,-0.6 l -0.4,0.6 c 0.7,0.2 1.5,0.5 2.5,0.5 z m -6.8,-6.5 c 1.3,0 2.2,1 2.3,2.5 h -4.5 c 0,-1.5 0.8,-2.5 2.2,-2.5 z m 3.2,2.8 c 0,-2.1 -1.3,-3.5 -3.2,-3.5 -2,0 -3.3,1.4 -3.3,3.6 0,2.2 1.3,3.6 3.3,3.6 1.2,0 2.3,-0.5 3,-1.5 l -0.7,-0.4 c -0.5,0.7 -1.3,1.2 -2.2,1.2 -1.4,0 -2.2,-1 -2.3,-2.5 h 5.5 c -0.1,-0.2 -0.1,-0.4 -0.1,-0.5 z m -11.1,3.5 h 0.9 l 3.1,-6.9 h -1 l -2.5,5.8 -2.5,-5.8 h -1 z m -6.9,-7 c -1.2,0 -2,0.5 -2.5,1.3 v -1.2 h -0.9 v 6.9 h 0.9 v -4.2 c 0,-1.2 0.9,-2.1 2.2,-2.1 1.3,0 2.2,0.8 2.2,2.1 v 4.2 H 157 V 116 c 0,-1.5 -1.1,-2.6 -2.8,-2.6 z m -6.8,7 h 1 v -9.7 h -1 z m -7.3,-5.7 v -1.2 h -0.9 v 6.9 h 0.9 v -4 c 0,-1.3 1,-2.2 2.6,-2.2 l 0.1,-0.9 c -1.3,0.1 -2.2,0.5 -2.7,1.4 z m -5.8,-0.6 c 1.3,0 2.2,1 2.3,2.5 H 132 c 0.1,-1.5 1,-2.5 2.3,-2.5 z m 3.2,2.8 c 0,-2.1 -1.3,-3.5 -3.2,-3.5 -2,0 -3.3,1.4 -3.3,3.6 0,2.2 1.3,3.6 3.3,3.6 1.2,0 2.3,-0.5 3,-1.5 l -0.7,-0.4 c -0.5,0.7 -1.3,1.2 -2.2,1.2 -1.4,0 -2.2,-1 -2.3,-2.5 h 5.5 c -0.1,-0.2 -0.1,-0.4 -0.1,-0.5 z m -9.1,3.5 h 0.9 v -6.9 h -0.9 z m 0.4,-8.6 c 0.4,0 0.6,-0.3 0.6,-0.6 0,-0.4 -0.3,-0.6 -0.6,-0.6 -0.4,0 -0.6,0.3 -0.6,0.6 0,0.3 0.3,0.6 0.6,0.6 z m -3.1,8 c -0.7,0 -1.2,-0.5 -1.2,-1.3 v -4.2 h 2.5 v -0.8 h -2.5 v -2 h -0.9 v 2 h -1.2 v 0.8 h 1.2 v 4.4 c 0,1.1 0.8,1.9 1.9,1.9 0.7,0 1.2,-0.1 1.7,-0.3 v -0.8 c -0.5,0.2 -1,0.3 -1.5,0.3 z m -7.2,-6.4 c -1.2,0 -2,0.5 -2.5,1.3 v -1.2 h -1 v 6.9 h 0.9 v -4.2 c 0,-1.2 0.9,-2.1 2.2,-2.1 1.3,0 2.2,0.8 2.2,2.1 v 4.2 h 0.9 V 116 c 0.1,-1.5 -1,-2.6 -2.7,-2.6 z m -8.3,0.7 c 1.3,0 2.2,1 2.3,2.5 H 108 c 0,-1.5 0.8,-2.5 2.2,-2.5 z m 3.2,2.8 c 0,-2.1 -1.3,-3.5 -3.2,-3.5 -2,0 -3.3,1.4 -3.3,3.6 0,2.2 1.3,3.6 3.3,3.6 1.2,0 2.3,-0.5 2.9,-1.5 l -0.7,-0.4 c -0.5,0.7 -1.3,1.2 -2.2,1.2 -1.4,0 -2.2,-1 -2.3,-2.5 h 5.5 c 0,-0.2 0,-0.4 0,-0.5 z m -11.3,3.7 c 2.1,0 3.5,-1.1 3.5,-2.7 0,-1.7 -1.6,-2.4 -3,-2.8 l -0.7,-0.2 c -1.1,-0.3 -2,-0.7 -2,-1.8 0,-1 0.9,-1.7 2.3,-1.7 1,0 1.9,0.3 2.5,1 l 0.5,-0.7 c -0.7,-0.7 -1.7,-1.1 -3,-1.1 -2,0 -3.3,1.1 -3.3,2.7 0,1.5 1.1,2.1 2.5,2.5 l 0.7,0.2 c 1.5,0.4 2.5,0.9 2.5,2 0,1 -1,1.7 -2.5,1.7 -1,0 -1.9,-0.3 -2.7,-1 l -0.4,0.7 c 0.7,0.8 1.9,1.2 3.1,1.2 z m -9,-0.8 c -0.7,0 -1.2,-0.5 -1.2,-1.3 v -4.2 h 2.5 v -0.8 h -2.5 v -2 H 91 v 2 h -1.2 v 0.8 H 91 v 4.4 c 0,1.1 0.8,1.9 1.9,1.9 0.7,0 1.2,-0.1 1.7,-0.3 v -0.8 c -0.5,0.2 -1,0.3 -1.5,0.3 z m -6.7,0.8 c 1.6,0 2.6,-0.8 2.6,-2 0,-1.1 -1,-1.7 -2,-1.9 l -0.7,-0.2 C 85.6,116.3 85,116 85,115.4 c 0,-0.7 0.6,-1.1 1.5,-1.1 0.7,0 1.3,0.1 1.9,0.5 l 0.4,-0.6 c -0.7,-0.4 -1.4,-0.6 -2.3,-0.6 -1.5,0 -2.4,0.8 -2.4,2 0,1 0.7,1.5 1.8,1.8 l 0.7,0.2 c 0.8,0.2 1.4,0.6 1.4,1.3 0,0.7 -0.7,1.2 -1.6,1.2 -0.7,0 -1.4,-0.1 -2,-0.6 l -0.4,0.6 c 0.6,0.2 1.4,0.5 2.4,0.5 z m -5.8,-5.9 v -1.2 h -0.9 v 6.9 h 0.9 v -4 c 0,-1.3 1,-2.2 2.6,-2.2 l 0.1,-0.9 c -1.3,0.1 -2.2,0.5 -2.7,1.4 z m -4,5.7 h 0.9 v -6.9 h -0.9 z m 0.5,-8.6 c 0.4,0 0.6,-0.3 0.6,-0.6 0,-0.4 -0.3,-0.6 -0.6,-0.6 -0.4,0 -0.6,0.3 -0.6,0.6 -0.1,0.3 0.2,0.6 0.6,0.6 z M 75,111.6 v -0.8 h -5.5 v 9.7 h 1 v -4.3 h 4 v -0.8 h -4 v -3.8 H 75 Z m -14,2.5 c 1.3,0 2.2,1 2.3,2.5 h -4.5 c 0,-1.5 0.9,-2.5 2.2,-2.5 z m 3.2,2.8 c 0,-2.1 -1.3,-3.5 -3.2,-3.5 -2,0 -3.3,1.4 -3.3,3.6 0,2.2 1.3,3.6 3.3,3.6 1.2,0 2.3,-0.5 2.9,-1.5 l -0.7,-0.4 c -0.5,0.7 -1.3,1.2 -2.2,1.2 -1.4,0 -2.2,-1 -2.3,-2.5 h 5.5 c 0,-0.2 0,-0.4 0,-0.5 z m -10.9,-3.5 c -1.2,0 -2,0.5 -2.5,1.3 v -4.4 h -0.9 v 10.2 h 0.9 v -4.2 c 0,-1.2 0.9,-2.1 2.2,-2.1 1.3,0 2.2,0.8 2.2,2.1 v 4.2 h 0.9 v -4.4 c 0,-1.6 -1.1,-2.7 -2.8,-2.7 z m -6,6.4 c -0.7,0 -1.2,-0.5 -1.2,-1.3 v -4.2 h 2.5 v -0.8 H 46 v -2 h -0.9 v 2 h -1.2 v 0.8 h 1.2 v 4.4 c 0,1.1 0.8,1.9 1.9,1.9 0.7,0 1.2,-0.1 1.7,-0.3 v -0.8 c -0.5,0.2 -1,0.3 -1.4,0.3 z m -7.8,-8.9 c 0.4,0 0.8,0.1 1.1,0.2 l 0.1,-0.7 c -0.4,-0.2 -0.9,-0.3 -1.4,-0.3 -1.2,0 -2,0.8 -2,1.9 v 1.5 H 36 v 0.8 h 1.2 v 6.1 h 0.9 v -6.1 h 2.3 v -0.8 h -2.3 v -1.3 c 0.1,-0.8 0.6,-1.3 1.4,-1.3 z m -7.8,8.9 c -1.5,0 -2.5,-1.1 -2.5,-2.8 0,-1.7 1,-2.8 2.5,-2.8 1.5,0 2.5,1.1 2.5,2.8 0.1,1.6 -0.9,2.8 -2.5,2.8 z m 0,0.8 c 2.1,0 3.5,-1.4 3.5,-3.6 0,-2.2 -1.4,-3.6 -3.5,-3.6 -2.1,0 -3.5,1.4 -3.5,3.6 0,2.1 1.4,3.6 3.5,3.6 z m -9.1,-0.8 c -0.7,0 -1.2,-0.5 -1.2,-1.3 v -4.2 h 2.5 v -0.8 h -2.5 v -2 h -0.9 v 2 h -1.2 v 0.8 h 1.2 v 4.4 c 0,1.1 0.8,1.9 1.9,1.9 0.7,0 1.2,-0.1 1.7,-0.3 v -0.8 c -0.6,0.2 -1,0.3 -1.5,0.3 z m -6.4,-5.1 v -1.2 h -0.9 v 6.9 h 0.9 v -4 c 0,-1.3 1,-2.2 2.6,-2.2 l 0.1,-0.9 c -1.3,0.1 -2.2,0.5 -2.7,1.4 z m -6.2,5.2 c -1,0 -1.6,-0.5 -1.6,-1.3 0,-0.8 0.8,-1.4 2,-1.4 0.6,0 1.3,0.1 1.9,0.2 0,1.6 -1.2,2.5 -2.3,2.5 z m 0.4,-6.5 c -1.1,0 -1.9,0.3 -2.5,1 l 0.4,0.6 c 0.5,-0.5 1.1,-0.8 1.9,-0.8 1.3,0 2.1,0.8 2.1,2.1 v 0.5 c -0.7,-0.2 -1.4,-0.2 -2,-0.2 -1.7,0 -2.8,0.8 -2.8,2.1 0,1.2 0.9,2 2.3,2 1.1,0 2.1,-0.6 2.6,-1.6 v 1.5 h 0.9 v -4.4 c -0.1,-1.7 -1.2,-2.8 -2.9,-2.8 z m -6.9,2.5 H 1.1 v -4.3 h 2.4 c 1.4,0 2.3,0.9 2.3,2.2 0,1.3 -1,2.1 -2.3,2.1 z m 0.1,-5.1 H 0.1 v 9.7 h 1 v -3.7 h 2.5 c 1.9,0 3.2,-1.2 3.2,-3 0,-1.9 -1.3,-3 -3.2,-3 z"
   id="path57" />
				<path
   class="st1"
   d="M 246,100.1 H 0.1 v 1 H 246 Z"
   id="path59" />
			</g>
		</g>
	</g>
</g>
</svg>
