<?xml version="1.0" encoding="UTF-8"?>
<svg id="Layer_1" data-name="Layer 1" xmlns="http://www.w3.org/2000/svg" viewBox="0 0 800 800">
  <defs>
    <style>
      .cls-1 {
        fill: #424143;
      }

      .cls-1, .cls-2 {
        stroke-width: 0px;
      }

      .cls-2 {
        fill: #54b8ba;
      }
    </style>
  </defs>
  <g>
    <path class="cls-1" d="M109.06,587.96v-26.6h4.66v26.6h-4.66Z"/>
    <path class="cls-1" d="M171.24,566.72v21.24h-4.51v-26.6h6.24l11.27,21.24v-21.24h4.51v26.6h-6.24l-11.26-21.24Z"/>
    <path class="cls-1" d="M250.92,582.46l6.57-21.1h4.92l-9.1,26.6h-4.99l-9.21-26.6h5.06l6.75,21.1Z"/>
    <path class="cls-1" d="M331.59,561.37v3.89h-14.16v7.12h13.39v3.85h-13.39v7.82h14.16v3.92h-18.82v-26.6h18.82Z"/>
    <path class="cls-1" d="M381.99,568.37c0-4.99,5.17-7.48,10.05-7.48,5.25,0,9.35,2.39,10.42,7.93h-4.51c-.77-3.19-3.56-4.11-6.17-4.11-2.05,0-5.1.92-5.1,3.52,0,2.06,1.69,3.08,3.96,3.52l3.26.62c4.66.92,9.1,2.61,9.1,7.96s-5.32,8.11-10.57,8.11c-6.31,0-10.64-3.45-11.19-9.28h4.59c.81,3.63,3.16,5.47,6.82,5.47,3.16,0,5.69-1.43,5.69-4,0-2.72-2.94-3.63-5.47-4.11l-3.23-.62c-4.18-.84-7.67-3.01-7.67-7.52Z"/>
    <path class="cls-1" d="M451.46,565.26v-3.89h21.39v3.89h-8.37v22.71h-4.66v-22.71h-8.37Z"/>
    <path class="cls-1" d="M521.02,574.65c0-8.18,4.88-13.76,12.69-13.76s12.69,5.58,12.69,13.76-4.88,13.8-12.69,13.8-12.69-5.62-12.69-13.8ZM541.61,574.65c0-6.46-3.48-9.94-7.89-9.94s-7.89,3.49-7.89,9.94,3.48,9.98,7.89,9.98,7.89-3.52,7.89-9.98Z"/>
    <path class="cls-1" d="M607.52,576.78h-4.51v11.19h-4.66v-26.6h8.48c7.85,0,11.85,1.76,11.85,7.67,0,3.41-1.69,5.72-4.99,6.86l6.09,12.07h-5.25l-5.61-11.23c-.44.04-.92.04-1.39.04ZM603.01,573.07h4.62c4,0,6.27-.81,6.27-4,0-3.48-2.75-3.96-6.42-3.96h-4.48v7.96Z"/>
    <path class="cls-1" d="M669.92,568.37c0-4.99,5.17-7.48,10.05-7.48,5.25,0,9.35,2.39,10.42,7.93h-4.51c-.77-3.19-3.56-4.11-6.17-4.11-2.05,0-5.1.92-5.1,3.52,0,2.06,1.69,3.08,3.96,3.52l3.26.62c4.66.92,9.1,2.61,9.1,7.96s-5.32,8.11-10.57,8.11c-6.31,0-10.64-3.45-11.19-9.28h4.59c.81,3.63,3.16,5.47,6.82,5.47,3.16,0,5.69-1.43,5.69-4,0-2.72-2.94-3.63-5.47-4.11l-3.23-.62c-4.18-.84-7.67-3.01-7.67-7.52Z"/>
  </g>
  <path class="cls-1" d="M363.2,515.55h-47.87c-1.79,0-3.5-.71-4.77-1.97l-139.18-138.27c-1.61-1.6-2.51-3.77-2.51-6.04v-12.43c0-4.7,3.81-8.52,8.52-8.52h78.27c19.89,0,36.16-16.27,36.16-36.16v-40.82c0-19.95-16.17-36.12-36.12-36.12h-106.91v273.56c0,3.74-3.03,6.76-6.76,6.76h-34.67c-3.74,0-6.76-3.03-6.76-6.76V218.32c0-3.74,3.03-6.76,6.76-6.76h148.31c33.04,0,59.83,26.79,59.83,59.8v40.86c0,33.01-26.79,59.8-59.83,59.8h-20.53l132.85,131.98c4.28,4.25,1.27,11.56-4.77,11.56Z"/>
  <g>
    <path class="cls-2" d="M628.01,513.08c-1.66,1.66-3.79,2.47-5.95,2.47s-4.33-.81-5.99-2.47l-42.95-42.99-23.27-23.27c-.2-.2-.41-.41-.57-.64.03.07.1.14.14.2l-76.88-76.88c-3.31-3.31-3.31-8.66,0-11.97,1.69-1.69,3.89-2.5,6.12-2.47h37.41c2.13.03,4.26.85,5.89,2.47l47.76,47.76c6.76-14.1,10.65-29.15,10.65-41.77,0-56.15-45.69-101.84-101.84-101.84s-101.87,45.69-101.87,101.84c0,63.79,59.36,100.15,102.21,101.87,4.67.2,8.29,4.13,8.08,8.79l.03,32.88c0,4.67-3.79,8.49-8.46,8.49-.3,0-.61-.03-.91-.07-63.55-2.84-151.08-57.06-151.08-151.96,0-83.78,68.19-151.96,152-151.96s151.96,68.19,151.96,151.96c0,15.22-3.45,32.3-9.98,49.41-4.67,12.18-10.65,23.88-17.89,34.84-3.69,5.58-7.68,10.96-11.97,16l37.37,37.37c3.31,3.28,3.31,8.62,0,11.94Z"/>
    <path class="cls-2" d="M549.85,446.83l-.44-.44c-.03-.07-.1-.14-.14-.2.17.24.37.44.57.64Z"/>
  </g>
  <rect class="cls-1" x="645.99" y="211.56" width="53.44" height="304" rx="7.6" ry="7.6"/>
</svg>