<svg xmlns="http://www.w3.org/2000/svg" width="600" height="600" viewBox="0 0 600 600">
  <g fill="none" stroke="currentColor" stroke-width="1" opacity="0.1">
    <path d="M0 300c30-40 80-60 140-50s120 50 170 30 90-70 140-60 100 40 150 20"/>
    <path d="M0 260c40-30 90-50 150-40s110 60 160 40 80-50 130-45 100 30 160 15"/>
    <path d="M0 340c35-45 85-55 145-45s115 55 165 35 85-65 135-55 95 45 155 25"/>
    <path d="M0 220c50-25 100-45 160-35s100 65 150 45 75-45 125-40 90 25 165 10"/>
    <path d="M0 380c45-50 95-60 155-50s105 50 155 30 80-60 130-50 90 40 155 20"/>
    <path d="M0 180c55-20 105-40 165-30s95 70 145 50 70-40 120-35 85 20 170 5"/>
    <path d="M0 420c40-55 90-65 150-55s110 45 160 25 85-55 135-45 95 35 150 15"/>
    <path d="M0 140c60-15 110-35 170-25s90 75 140 55 65-35 115-30 80 15 175 0"/>
    <path d="M0 460c35-60 85-70 145-60s115 40 165 20 90-50 140-40 100 30 145 10"/>
    <path d="M0 100c65-10 115-30 175-20s85 80 135 60 60-30 110-25 75 10 180-5"/>
    <path d="M0 500c30-65 80-75 140-65s120 35 170 15 95-45 145-35 105 25 140 5"/>
    <path d="M0 60c70-5 120-25 180-15s80 85 130 65 55-25 105-20 70 5 185-10"/>
    <path d="M0 540c25-70 75-80 135-70s125 30 175 10 100-40 150-30 110 20 135 0"/>
    <path d="M50 0c-20 50-10 100 20 150s70 80 60 140-30 100-10 160 50 80 40 150"/>
    <path d="M150 0c-25 45-15 95 15 145s65 85 55 145-35 95-15 155 45 85 35 155"/>
    <path d="M250 0c-30 40-20 90 10 140s60 90 50 150-40 90-20 150 40 90 30 160"/>
    <path d="M350 0c-35 35-25 85 5 135s55 95 45 155-45 85-25 145 35 95 25 165"/>
    <path d="M450 0c-40 30-30 80 0 130s50 100 40 160-50 80-30 140 30 100 20 170"/>
    <path d="M550 0c-45 25-35 75-5 125s45 105 35 165-55 75-35 135 25 105 15 175"/>
    <!-- Organic curves -->
    <path d="M100 150c30-20 70 10 100 30s60 50 100 40 80-30 120-10 60 40 80 60"/>
    <path d="M50 350c40-30 80 5 110 25s55 55 95 45 75-25 115-5 55 45 75 65"/>
    <path d="M200 50c25-15 65 15 95 35s50 45 90 35 70-35 110-15 50 35 70 55"/>
    <path d="M0 580c50-30 100-20 150 10s80 40 130 25 90-30 140-15 80 25 130 15"/>
    <path d="M300 100c20 30 10 70-10 100s-50 60-40 100 30 80 10 120-40 60-20 80"/>
  </g>
</svg>